<svg width="46" height="46" viewBox="0 0 46 46" fill="none" xmlns="http://www.w3.org/2000/svg">
<path fill-rule="evenodd" clip-rule="evenodd" d="M18.0978 0.115094C16.7817 0.252748 14.1017 0.912277 12.7085 1.44127C10.5086 2.27643 8.13116 3.65034 6.21313 5.19473C5.23509 5.98229 3.27609 7.9651 2.77825 8.67157C2.48955 9.08123 2.54936 9.05104 3.3115 8.40246C8.9433 3.60986 16.4088 1.46685 22.8092 2.80556C25.4191 3.35143 28.6954 4.76713 30.7793 6.24982C33.7879 8.39032 36.3864 11.5708 37.529 14.5117C38.338 16.5936 38.513 17.6037 38.5048 20.1428C38.4982 22.192 38.4592 22.5914 38.1563 23.7126C37.4235 26.4243 36.2245 28.5384 34.4521 30.2439C32.672 31.9567 30.5908 33.068 28.2657 33.5472C25.9378 34.0271 22.0794 33.4789 19.6746 32.3269C16.3856 30.7514 14.5799 26.7706 15.6879 23.538C15.8556 23.0484 15.9759 22.648 15.9552 22.648C15.831 22.648 15.1735 23.9689 14.9627 24.6423C14.6539 25.6291 14.6346 27.3777 14.9195 28.5794C15.2927 30.1537 15.9543 31.2953 17.2181 32.5454C18.5034 33.8169 19.8137 34.5745 21.9515 35.2827C24.0265 35.97 25.0764 36.1442 27.1125 36.1388C28.6677 36.1347 29.1753 36.0795 30.2387 35.7993C33.006 35.07 35.176 33.8399 37.1222 31.8974C39.561 29.463 40.9853 26.7399 41.7214 23.1047C42.0731 21.368 42.0409 18.1601 41.6538 16.3541C41.1359 13.9383 40.1762 11.7416 38.6717 9.52861C37.4934 7.79527 34.7836 5.14397 32.9575 3.93765C28.3803 0.913728 23.1995 -0.418911 18.0978 0.115094ZM37.6269 3.49633C39.3682 5.56735 41.4778 9.42471 42.3551 12.1418C44.6269 19.1784 43.7637 25.934 39.9487 30.9729C38.2136 33.2649 35.6997 35.3481 33.1022 36.6466C30.8219 37.7866 27.5359 38.6034 25.2389 38.6014C18.8444 38.596 13.0816 34.1461 11.8382 28.254C11.6037 27.1426 11.5825 25.0018 11.7945 23.8393C12.3871 20.5904 14.993 17.4718 18.257 16.1054C19.0753 15.7629 19.2977 15.7291 20.7469 15.7276C22.1189 15.726 22.4273 15.7666 22.9841 16.022C23.8465 16.4175 23.5423 16.0335 22.6286 15.573C18.7147 13.6012 12.7442 16.4636 10.3465 21.4613C9.43145 23.3686 9.22855 24.3527 9.23147 26.8673C9.23386 28.7991 9.27364 29.1903 9.58635 30.3584C10.0135 31.953 10.9953 33.9921 11.937 35.24C13.5862 37.4256 16.2177 39.5158 18.6804 40.5962C27.533 44.4804 39.231 39.7418 43.9475 30.3614C44.7896 28.6865 45.2079 27.4919 45.6325 25.5488C45.8972 24.3373 46 21.1976 46 21.1976C46 21.1976 45.8971 18.0582 45.6335 16.8545C44.7014 12.6001 42.6198 8.47893 39.8017 5.30931C38.8206 4.20584 37.3893 2.87003 37.1878 2.87003C37.1397 2.87003 37.3373 3.1518 37.6269 3.49633ZM17.2989 4.54312C14.1088 4.9541 10.5527 6.323 8.05663 8.10051C6.7924 9.0008 4.95368 10.7639 4.05309 11.9393C2.06862 14.5291 0.699232 17.7909 0.193568 21.1317C-0.0619829 22.8206 -0.0650331 26.2798 0.1876 27.9461C0.841264 32.2575 2.7195 36.6661 5.20472 39.723C5.9235 40.607 7.75638 42.4769 8.4131 42.996L8.9429 43.4149L8.56866 42.9534C6.23011 40.0699 4.77956 37.4865 3.71903 34.317C2.70478 31.2858 2.29699 28.4535 2.42801 25.351C2.64683 20.1721 4.352 16.0486 7.60945 12.8212C10.952 9.50963 15.0761 7.84393 19.9512 7.83654C22.1087 7.83325 23.6682 8.07546 25.4009 8.68291C29.0506 9.96241 31.3848 11.9915 32.8965 15.1988C33.749 17.0075 34.0034 18.2776 34.0062 20.7361C34.0077 22.0652 33.9424 23.1141 33.83 23.571C33.537 24.7605 32.5626 26.628 31.8044 27.4527C29.8664 29.5612 26.9967 30.6831 24.5128 30.3038C23.5755 30.1607 22.1135 29.592 21.5447 29.1494C21.3976 29.0351 21.5659 29.2159 21.9186 29.5512C23.95 31.4827 27.6668 31.7795 30.7111 30.2531C35.184 28.0106 37.2995 23.1548 36.397 17.2021C35.4077 10.6763 30.3316 5.89843 23.0775 4.66482C21.9206 4.46809 18.4484 4.39491 17.2989 4.54312ZM17.1604 9.52176C12.621 10.2233 8.51627 13.2871 6.02283 17.8351C4.11369 21.3173 3.5583 25.4611 4.43502 29.6812C5.4376 34.5069 8.6896 39.3807 12.8704 42.3231C19.0352 46.662 26.9627 47.1877 34.498 43.7573C37.3341 42.4662 40.625 40.0704 42.6569 37.8174C43.4916 36.8921 43.4351 36.8914 42.2307 37.8127C39.9714 39.5407 36.3899 41.4078 33.6769 42.2717C27.0891 44.3693 20.6824 43.7408 15.8572 40.5236C12.761 38.4592 10.1004 35.2666 8.74424 31.9885C6.64042 26.903 7.05458 21.7278 9.90768 17.4509C11.1251 15.6259 13.2861 13.6759 15.1082 12.7582C18.0212 11.291 21.7291 11.1807 24.6892 12.4733C27.4431 13.6758 29.7717 16.2998 30.5593 19.088L30.7642 19.8132L30.7073 18.8119C30.5886 16.724 29.5484 14.6839 27.6542 12.8249C25.6728 10.8804 23.4312 9.79271 20.7469 9.4735C19.2804 9.29919 18.5365 9.30908 17.1604 9.52176Z" fill="#414650"/>
</svg>
