<svg width="249" height="249" viewBox="0 0 249 249" fill="none" xmlns="http://www.w3.org/2000/svg">
<path fill-rule="evenodd" clip-rule="evenodd" d="M97.964 0.623007C90.84 1.36814 76.3329 4.9382 68.7918 7.80167C56.8833 12.3224 44.0143 19.7594 33.632 28.1193C28.3378 32.3824 17.7336 43.1154 15.0388 46.9396C13.476 49.1571 13.7998 48.9937 17.9253 45.4829C48.4104 19.5403 88.8214 7.94013 123.467 15.1866C137.595 18.1414 155.329 25.8047 166.61 33.8306C182.896 45.4172 196.961 62.633 203.146 78.5527C207.525 89.8217 208.473 95.2895 208.428 109.034C208.392 120.127 208.181 122.288 206.542 128.357C202.575 143.036 196.085 154.48 186.491 163.712C176.855 172.983 165.59 178.998 153.003 181.593C140.402 184.19 119.517 181.223 106.499 174.987C88.6958 166.459 78.9214 144.911 84.9191 127.412C85.8272 124.762 86.4783 122.595 86.3663 122.595C85.6937 122.595 82.1346 129.745 80.9939 133.39C79.322 138.731 79.2179 148.197 80.7599 154.702C82.7799 163.223 86.3613 169.403 93.2025 176.17C100.16 183.052 107.252 187.153 118.824 190.987C130.056 194.707 135.74 195.65 146.761 195.621C155.179 195.599 157.927 195.3 163.684 193.783C178.663 189.835 190.409 183.177 200.944 172.662C214.145 159.484 221.855 144.744 225.84 125.067C227.744 115.666 227.569 98.3015 225.474 88.5256C222.671 75.4487 217.475 63.558 209.331 51.5788C202.953 42.1961 188.285 27.8445 178.4 21.3147C153.624 4.94605 125.58 -2.26759 97.964 0.623007ZM203.676 18.9258C213.102 30.1363 224.521 51.0164 229.27 65.7241C241.567 103.814 236.895 140.382 216.244 167.658C206.852 180.065 193.244 191.341 179.184 198.37C166.84 204.54 149.053 208.962 136.619 208.951C102.006 208.922 70.8111 184.834 64.0805 152.94C62.8113 146.924 62.6965 135.336 63.8443 129.043C67.0517 111.457 81.1576 94.5758 98.8261 87.1795C103.255 85.3252 104.459 85.1425 112.304 85.1339C119.731 85.1254 121.4 85.3452 124.414 86.7277C129.082 88.8689 127.436 86.7898 122.49 84.2974C101.303 73.6237 68.9849 89.118 56.0061 116.171C51.0529 126.495 49.9546 131.822 49.9703 145.434C49.9833 155.891 50.1986 158.008 51.8913 164.331C54.2035 172.963 59.5178 184.001 64.6153 190.755C73.5426 202.586 87.787 213.901 101.118 219.749C149.037 240.774 212.359 215.124 237.89 164.348C242.448 155.281 244.712 148.815 247.011 138.297C248.444 131.739 249 114.744 249 114.744C249 114.744 248.443 97.7498 247.016 91.2342C241.971 68.2051 230.703 45.8968 215.448 28.7395C210.137 22.7664 202.39 15.5356 201.299 15.5356C201.039 15.5356 202.108 17.0608 203.676 18.9258ZM93.6396 24.5921C76.3716 26.8168 57.1223 34.2267 43.6109 43.8484C36.7676 48.7217 26.8145 58.2657 21.9395 64.6279C11.1975 78.6469 3.78497 96.303 1.04779 114.387C-0.335516 123.529 -0.352027 142.253 1.01549 151.274C4.5538 174.611 14.7208 198.475 28.1734 215.022C32.0642 219.808 41.9856 229.929 45.5405 232.739L48.4083 235.007L46.3825 232.508C33.7238 216.9 25.8719 202.916 20.1313 185.759C14.6411 169.352 12.4337 154.02 13.1429 137.226C14.3274 109.192 23.5576 86.8719 41.1903 69.402C59.2838 51.476 81.6077 42.4595 107.997 42.4195C119.676 42.4017 128.117 43.7128 137.496 47.0009C157.252 53.927 169.887 64.9105 178.07 82.2719C182.685 92.0621 184.062 98.9374 184.077 112.246C184.085 119.44 183.732 125.118 183.123 127.591C181.537 134.03 176.263 144.138 172.159 148.603C161.668 160.016 146.134 166.089 132.689 164.036C127.615 163.261 119.701 160.183 116.623 157.787C115.826 157.168 116.737 158.147 118.646 159.962C129.642 170.417 149.762 172.024 166.241 163.762C190.452 151.623 201.904 125.338 197.019 93.1155C191.663 57.7911 164.186 31.9285 124.919 25.2509C118.657 24.186 99.862 23.7899 93.6396 24.5921ZM92.8902 51.5417C68.318 55.3394 46.099 71.9236 32.6018 96.5421C22.2676 115.392 19.2612 137.822 24.007 160.665C29.4339 186.787 47.0372 213.169 69.6683 229.097C103.039 252.583 145.95 255.429 186.739 236.86C202.091 229.871 219.905 216.903 230.904 204.707C235.422 199.698 235.116 199.695 228.596 204.682C216.367 214.036 196.98 224.142 182.295 228.818C146.635 240.173 111.955 236.771 85.8358 219.356C69.0761 208.181 54.6737 190.9 47.3329 173.155C35.9449 145.627 38.1867 117.613 53.6307 94.4623C60.2206 84.5836 71.9181 74.0283 81.7814 69.0608C97.5498 61.1185 117.62 60.5218 133.644 67.5184C148.551 74.0276 161.155 88.2315 165.419 103.324L166.528 107.249L166.22 101.829C165.577 90.5276 159.947 79.4848 149.693 69.422C138.968 58.8959 126.834 53.0084 112.304 51.2805C104.366 50.3369 100.339 50.3904 92.8902 51.5417Z" fill="#C49B6C"/>
</svg>
