<svg width="186" height="43" viewBox="0 0 186 43" fill="none" xmlns="http://www.w3.org/2000/svg">
<path d="M110.474 17.0912C111.46 15.2888 112.356 13.6656 113.241 12.0319C115.144 8.51672 117.072 5.00682 118.917 1.46003C119.05 1.10442 119.301 0.805401 119.628 0.613396C119.955 0.421391 120.339 0.348144 120.714 0.406005C121.931 0.479787 123.154 0.406005 124.477 0.406005V26.3613H119.634V10.0556L119.354 9.97654C118.98 10.6195 118.601 11.2625 118.237 11.9107C116.292 15.3573 114.369 18.8093 112.44 22.2506C111.765 23.4364 108.782 23.5207 108.161 22.3613C104.327 15.2221 100.519 8.07578 96.735 0.922477C96.6996 0.766942 96.6837 0.607623 96.6876 0.448166C98.1685 0.448166 99.6388 0.384925 101.099 0.495597C101.441 0.495597 101.826 1.08585 102.042 1.48638C104.635 6.24003 107.196 11.0042 109.726 15.7789C109.931 16.1637 110.163 16.5431 110.474 17.0912Z" fill="white"/>
<path d="M152.639 26.3628V9.70923C152.244 10.2837 152.023 10.563 151.849 10.8739C149.741 14.6368 147.564 18.3786 145.525 22.1836C144.787 23.5591 143.664 22.932 142.674 23.0953C141.836 23.2324 141.382 22.8529 140.987 22.1045C137.367 15.2534 133.704 8.37062 130.062 1.50365C129.915 1.23488 129.804 0.976642 129.567 0.44963C131.179 0.44963 132.613 0.386389 134.036 0.491791C134.389 0.491791 134.816 1.0188 135.027 1.40879C137.609 6.1519 140.154 10.9319 142.716 15.6961C142.927 16.0913 143.148 16.4813 143.48 17.0769C143.801 16.5498 144.044 16.1282 144.265 15.7224C146.847 10.9793 149.435 6.23622 151.975 1.44041C152.099 1.10607 152.331 0.82317 152.635 0.63759C152.94 0.45201 153.298 0.374634 153.651 0.41801C154.911 0.491791 156.181 0.41801 157.53 0.41801V26.3628H152.639Z" fill="white"/>
<path d="M66.5061 17.1006C66.016 20.1204 64.7564 22.5077 62.4534 24.289C57.3625 28.2205 48.593 27.5987 44.3137 22.8503C40.6667 18.7923 40.1661 13.928 41.6259 8.88975C42.9645 4.29421 46.1002 1.3324 50.8381 0.357432C54.2029 -0.391396 57.7231 0.0442038 60.8039 1.59064C64.1925 3.29289 66.0107 6.12821 66.5167 9.95432H61.6155C59.1016 4.33637 53.2307 2.67628 48.7774 6.33375C45.6681 8.90029 44.9039 13.9596 47.0278 17.9754C47.8766 19.686 49.3078 21.0376 51.064 21.7873C52.8203 22.537 54.7864 22.6354 56.6088 22.0651C57.6281 21.8045 58.5692 21.3012 59.352 20.5983C60.1348 19.8954 60.7359 19.0136 61.1043 18.0281C61.168 17.723 61.3474 17.4544 61.6048 17.2786C61.8622 17.1027 62.1776 17.0333 62.485 17.0848C63.7498 17.1428 65.0252 17.0848 66.5061 17.0848" fill="white"/>
<path d="M172.567 5.86063L165.668 26.4141H160.256L163.703 16.7592C165.489 11.7632 167.307 6.74601 169.036 1.75521C169.394 0.701182 169.9 0.337544 170.986 0.421866C172.298 0.527268 173.621 0.379705 174.939 0.485107C175.198 0.516078 175.447 0.605148 175.666 0.745675C175.886 0.886202 176.072 1.07456 176.209 1.29671C179.476 9.47066 182.686 17.671 185.9 25.866C185.936 26.0573 185.955 26.2512 185.958 26.4457C184.219 26.4457 182.517 26.4984 180.825 26.4036C180.514 26.4036 180.114 25.8133 179.972 25.4233C177.758 19.3047 175.582 13.1808 173.389 7.08857C173.247 6.6775 173.062 6.28224 172.894 5.88171H172.567" fill="white"/>
<path d="M69.962 0.5H74.8369V15.1351C74.8369 19.699 76.1491 21.2379 80.7394 21.9547V26.6187C75.327 27.4145 70.3309 23.6411 70.0305 18.0864C69.7196 12.2893 69.962 6.44996 69.962 0.5Z" fill="white"/>
<path d="M91.6596 0.529297H86.7268V16.9932H91.6596V0.529297Z" fill="white"/>
<path d="M101.311 26.361H96.5149V7.64682L96.7046 7.5625C97.6585 9.33853 98.507 11.1725 99.5874 12.8642C100.952 14.9629 101.57 17.4598 101.342 19.9526C101.189 22.029 101.311 24.1265 101.311 26.3768" fill="white"/>
<path d="M129.77 7.57227C131.251 10.3602 132.742 13.1533 134.218 15.9465C134.31 16.1536 134.355 16.3786 134.349 16.6053C134.349 19.8253 134.349 23.0401 134.349 26.3497H129.575V7.66713L129.764 7.57227" fill="white"/>
<path d="M29.7778 0.464844V7.91679H12.5445L12.497 8.02219L24.8713 20.3859L12.5761 32.6864H29.7778V40.1278H0.0490226V36.7549C0.0490226 36.2279 -0.0932707 35.6324 0.106994 35.1739C0.307258 34.7154 0.84481 34.4044 1.24007 34.0408L15.8119 20.6125C15.9415 20.5197 16.0812 20.4419 16.2283 20.3806C15.9701 20.1382 15.8541 20.017 15.7329 19.9063C10.5857 15.1632 5.44211 10.4201 0.301988 5.67699C0.216281 5.60292 0.148506 5.51037 0.103774 5.40629C0.0590416 5.30222 0.0385187 5.18935 0.0437525 5.0762C0.0437525 3.66908 0.0437525 2.26195 0.0437525 0.860103C0.0437525 0.73889 0.0437525 0.612407 0.0437525 0.470114L29.7778 0.464844Z" fill="white"/>
<path d="M176.402 16.959H169.793V20.374H176.402V16.959Z" fill="white"/>
<path d="M41.4347 39.1484V32.4636H44.3378V33.3708H42.3897V39.1484H41.4347ZM50.7875 39.1484V32.4636H52.2104C52.8089 32.4636 53.2545 32.61 53.5474 32.9029C53.8721 33.2339 54.0344 33.7433 54.0344 34.4308V34.6218C54.0344 35.2076 53.8975 35.6596 53.6238 35.9779C53.3182 36.3281 52.8789 36.5031 52.3059 36.5031H51.7425V39.1484H50.7875ZM51.7425 33.3231V35.6437H52.2582C52.5319 35.6437 52.7452 35.5609 52.898 35.3954C52.9617 35.3253 53.0062 35.2458 53.0317 35.1566C53.0635 35.0675 53.0794 35.0038 53.0794 34.9656C53.0794 34.9211 53.0794 34.8351 53.0794 34.7078V34.2685C53.0794 33.8929 52.9935 33.635 52.8216 33.495C52.6815 33.3804 52.4332 33.3231 52.0767 33.3231H51.7425ZM60.0156 32.4636H61.1043L62.0211 35.7392H62.0498C62.1389 35.1853 62.2216 34.7301 62.298 34.3735L62.7182 32.4636H63.7019L62.5654 37.0284C62.5463 37.0921 62.5145 37.2162 62.4699 37.4008C62.4317 37.5791 62.3999 37.7096 62.3744 37.7924C62.3553 37.8751 62.3203 37.9929 62.2694 38.1457C62.2185 38.2921 62.1675 38.4067 62.1166 38.4895C62.072 38.5723 62.0116 38.6582 61.9352 38.7473C61.8588 38.8365 61.776 38.9097 61.6869 38.967C61.4831 39.088 61.2094 39.1484 60.8656 39.1484H60.5218V38.2412H60.7605C60.9579 38.2412 61.1043 38.1871 61.1998 38.0789C61.2826 37.9961 61.3462 37.8624 61.3908 37.6778L61.515 37.1143L60.0156 32.4636ZM70.1273 32.4636H73.2787V39.1484H72.3237V33.3231H71.0823V39.1484H70.1273V32.4636ZM80.3474 32.4636H83.4989V39.1484H82.5439V33.3231H81.3024V39.1484H80.3474V32.4636ZM93.8527 39.1484H92.8977L92.5826 37.716H91.3602L91.0451 39.1484H90.0901L91.5512 32.4636H92.3916L93.8527 39.1484ZM92.468 36.866L91.9523 34.3258L91.4557 36.866H92.468ZM108.564 32.4636H109.519V35.3285H110.064C110.21 35.3285 110.328 35.2617 110.417 35.128C110.513 35.0006 110.583 34.7078 110.627 34.2494L110.694 33.6478C110.745 33.1512 110.872 32.8137 111.076 32.6355C111.267 32.47 111.563 32.3872 111.964 32.3872H112.107V33.2467H111.983C111.9 33.2467 111.818 33.2817 111.735 33.3517C111.652 33.4281 111.589 33.6637 111.544 34.0584L111.477 34.6982C111.439 35.0484 111.394 35.2871 111.343 35.4145C111.292 35.5354 111.222 35.6278 111.133 35.6914L112.165 39.1484H111.124L110.293 36.188H109.519V39.1484H108.564V32.4636ZM118.801 37.3913V34.2207C118.801 33.9088 118.83 33.6414 118.887 33.4186C118.951 33.1957 119.087 32.9888 119.298 32.7978C119.603 32.5113 119.995 32.3681 120.472 32.3681C120.95 32.3681 121.341 32.5113 121.647 32.7978C121.857 32.9888 121.991 33.1957 122.048 33.4186C122.112 33.6414 122.143 33.9088 122.143 34.2207V37.3913C122.143 37.7032 122.112 37.9706 122.048 38.1935C121.991 38.4163 121.857 38.6232 121.647 38.8142C121.341 39.1007 120.95 39.2439 120.472 39.2439C119.995 39.2439 119.603 39.1007 119.298 38.8142C119.087 38.6232 118.951 38.4163 118.887 38.1935C118.83 37.9706 118.801 37.7032 118.801 37.3913ZM121.188 37.5345V34.0775C121.188 33.8228 121.122 33.6287 120.988 33.495C120.861 33.3676 120.689 33.304 120.472 33.304C120.256 33.304 120.084 33.3676 119.956 33.495C119.823 33.6287 119.756 33.8228 119.756 34.0775V37.5345C119.756 37.7892 119.823 37.9834 119.956 38.1171C120.084 38.2444 120.256 38.3081 120.472 38.3081C120.689 38.3081 120.861 38.2444 120.988 38.1171C121.122 37.9834 121.188 37.7892 121.188 37.5345ZM129.117 39.1484V32.4636H130.072L131.389 36.1498H131.428L132.679 32.4636H133.634V39.1484H132.679V34.9656H132.631L131.628 37.9834H131.122L130.119 34.9656H130.072V39.1484H129.117ZM140.698 32.4636H143.85V39.1484H142.895V33.3231H141.653V39.1484H140.698V32.4636ZM154.204 39.1484H153.249L152.933 37.716H151.711L151.396 39.1484H150.441L151.902 32.4636H152.742L154.204 39.1484ZM152.819 36.866L152.303 34.3258L151.807 36.866H152.819ZM160.766 32.4636H161.721V35.3381H163.01V32.4636H163.965V39.1484H163.01V36.1976H161.721V39.1484H160.766V32.4636ZM171.032 32.4636H171.987V36.57L173.563 33.2276V32.4636H174.518V39.1484H173.563V35.042L171.987 38.3845V39.1484H171.032V32.4636ZM181.588 32.4636H182.543V36.57L184.119 33.2276V32.4636H185.074V39.1484H184.119V35.042L182.543 38.3845V39.1484H181.588V32.4636ZM184.501 30.8592V30.9738C184.501 31.3049 184.405 31.5595 184.214 31.7378C184.03 31.9161 183.737 32.0052 183.336 32.0052C182.935 32.0052 182.642 31.9161 182.457 31.7378C182.266 31.5595 182.171 31.3049 182.171 30.9738V30.8592H182.935V30.9452C182.935 31.0598 182.973 31.1489 183.049 31.2126C183.113 31.2699 183.208 31.2985 183.336 31.2985C183.463 31.2985 183.559 31.2699 183.622 31.2126C183.699 31.1489 183.737 31.0598 183.737 30.9452V30.8592H184.501Z" fill="white"/>
</svg>
