<svg width="200" height="65" viewBox="0 0 200 65" fill="none" xmlns="http://www.w3.org/2000/svg">
<path fill-rule="evenodd" clip-rule="evenodd" d="M25.4089 0.158694C23.6437 0.328991 21.1238 0.886246 18.9519 1.58647C16.7362 2.30098 12.3933 4.50567 10.4134 5.92111C8.46608 7.31328 5.56628 10.028 4.32131 11.6245L3.44409 12.7496L4.4976 11.8535C10.2292 6.97938 16.6423 4.20439 23.8635 3.47367C29.8558 2.8674 36.7407 4.72551 42.3132 8.453C44.2297 9.73481 47.5378 12.8599 48.9012 14.6764C52.4066 19.3464 53.9854 24.6268 53.4516 29.8949C52.9559 34.7885 51.2813 38.5846 48.2334 41.7238C44.0125 46.0713 38.9767 47.7475 33.0527 46.7767C29.8369 46.2497 27.2188 45.2745 25.4721 43.953C21.8674 41.2256 20.2811 35.7001 22.0815 32.143C22.5926 31.1332 22.0417 31.643 21.4529 32.7247C20.7819 33.9575 20.4479 35.4366 20.4479 37.1746C20.4479 41.9735 23.1964 46.0274 27.9094 48.1798C36.1635 51.9494 44.1764 50.9646 50.5638 45.3956C56.9393 39.8372 59.6606 30.7037 57.5622 21.9061C56.4348 17.1787 54.0836 13.1286 50.2507 9.31118C47.505 6.57674 45.4448 5.09678 42.0435 3.41549C38.0225 1.42781 35.1338 0.584084 30.8744 0.153229C28.8404 -0.0526782 27.5859 -0.0512679 25.4089 0.158694ZM51.5641 4.02316C51.6515 4.1686 52.0517 4.69219 52.4533 5.18651C54.5704 7.79297 57.5139 13.1534 58.5908 16.3635C61.2664 24.3382 61.0804 32.2819 58.0634 38.9025C56.4371 42.4711 52.5215 46.9685 49.007 49.3043C42.5882 53.5706 34.9576 54.8871 28.8023 52.7903C23.9321 51.1312 19.72 47.4468 17.703 43.0813C16.719 40.9513 16.3692 39.444 16.2661 36.8871C16.0859 32.4282 17.1794 29.3717 20.0962 26.1803C21.8883 24.2194 24.7991 22.4373 26.9336 21.9942C28.5285 21.6632 30.7473 21.8483 31.9824 22.4156C32.8409 22.8099 32.9737 22.836 32.7253 22.5615C32.278 22.0672 30.1752 21.1498 28.9823 20.9286C26.7797 20.5199 23.5509 21.2898 20.9237 22.85C19.2563 23.8402 16.8595 26.0306 15.7647 27.5649C14.7082 29.0455 13.813 31.0288 13.2707 33.0902C12.9017 34.4936 12.8222 35.2113 12.8095 37.254C12.7727 43.1929 14.9696 48.102 19.5817 52.3868C23.0043 55.5664 27.0239 57.511 31.691 58.2453C34.1118 58.6262 38.0858 58.5062 40.573 57.9771C51.4084 55.6721 60.2945 47.3769 62.9325 37.1045C63.7036 34.1017 63.8753 32.3443 63.7646 28.5836C63.6932 26.1586 63.5651 24.792 63.2881 23.5033C61.7144 16.1777 57.7332 9.25759 52.4536 4.66998C51.8768 4.16878 51.4764 3.87772 51.5641 4.02316ZM24.1648 6.33821C20.6964 6.75285 16.3071 8.21818 13.4156 9.92679C2.93373 16.1208 -1.94001 28.0736 0.71158 41.0846C1.69088 45.8905 4.1147 51.2629 7.00128 55.0262C8.03805 56.3778 10.3686 58.8233 11.5446 59.7936C12.4929 60.576 12.4786 60.5418 11.1878 58.9377C4.62488 50.7822 1.83103 38.9631 4.22523 29.4834C5.50616 24.4115 7.67048 20.5926 11.0643 17.4158C14.3346 14.3549 18.0341 12.4514 22.7606 11.3985C25.2932 10.8342 30.0984 10.8204 32.6119 11.3703C41.1393 13.2358 46.3623 18.8924 47.2335 27.2054C47.79 32.5156 46.196 36.7873 42.5385 39.7874C39.101 42.6072 33.9323 43.1505 30.6084 41.0416C29.3467 40.241 29.4061 40.5376 30.6997 41.4971C32.7288 43.0025 34.2971 43.5084 36.931 43.5075C39.0115 43.507 40.4493 43.2013 42.2208 42.3826C47.7278 39.8384 50.7852 34.5527 50.7644 27.6123C50.751 23.1304 49.7283 19.4814 47.5482 16.1368C44.3136 11.1746 39.0065 7.81712 32.4356 6.57638C30.5876 6.2275 26.1581 6.09987 24.1648 6.33821ZM106.518 13.8672C106.63 16.2271 107.156 17.5864 108.371 18.656C109.62 19.7555 110.407 19.9286 113.84 19.8601C116.731 19.8024 116.81 19.7906 117.735 19.2783C119.665 18.2093 120.405 16.6914 120.405 13.8006V11.9562H118.289H116.174V13.7327C116.174 15.4611 116.16 15.5231 115.658 16.0245C115.165 16.5176 115.075 16.5398 113.557 16.5398C112.685 16.5398 111.843 16.4904 111.686 16.4303C111.15 16.2244 110.834 15.27 110.746 13.5878L110.661 11.9562H108.544H106.428L106.518 13.8672ZM24.486 13.1848C17.6491 14.0513 11.5057 18.7038 8.05321 25.6299C6.30652 29.1335 5.7267 31.7634 5.74292 36.1081C5.75544 39.5101 6.06112 41.4426 7.06721 44.4819C9.66645 52.333 16.1996 59.2313 23.918 62.2744C34.4104 66.4112 47.2442 63.5922 56.8577 55.0389C57.6494 54.3346 58.7255 53.2587 59.2493 52.648L60.2014 51.5376L59.32 52.2013C53.4888 56.5924 47.0947 59.398 40.7666 60.343C38.4237 60.6927 34.0171 60.6939 31.9739 60.3454C26.6901 59.4442 22.2763 57.2395 18.5004 53.6152C14.6638 49.9326 12.1985 45.7817 10.9913 40.9709C10.4375 38.7643 10.23 34.5738 10.5694 32.4471C11.5884 26.0586 15.8987 20.2387 21.5728 17.59C22.3601 17.2226 23.4801 16.79 24.0618 16.6288C25.476 16.2368 29.3863 16.0806 30.9529 16.3533C34.4263 16.9581 38.2074 19.3612 40.306 22.2975C41.2424 23.6075 42.2526 25.7392 42.4132 26.744C42.6 27.9123 42.884 27.8349 42.75 26.6522C42.0236 20.2386 36.927 14.8391 30.3134 13.4764C28.6198 13.1275 25.9804 12.9955 24.486 13.1848ZM77.9186 23.8559V26.5884H83.8041C90.7403 26.5884 91.0213 26.6369 92.4757 28.0823C93.5354 29.1356 93.9611 30.205 93.9611 31.8138C93.9611 33.4182 93.4403 34.6757 92.3814 35.6277C90.931 36.9315 90.5663 36.9895 83.8041 36.9895H77.9186V39.722V42.4546H83.8318C90.7168 42.4546 91.5881 42.3424 94.0528 41.1398C96.6317 39.8816 98.3886 37.8789 99.2675 35.1963C99.8758 33.3389 99.8758 30.239 99.2675 28.3816C98.3987 25.7297 96.6078 23.6898 94.0492 22.4383C91.5903 21.2355 90.7193 21.1234 83.8318 21.1234H77.9186V23.8559ZM102.599 30.9131C102.599 41.6508 102.599 41.6427 103.635 42.1785C104.243 42.4932 106.215 42.5499 107.184 42.2807C107.525 42.1862 108.105 41.8158 108.474 41.4576C108.842 41.0996 111.261 38.1855 113.849 34.9821L118.554 29.1578L118.6 35.8061L118.646 42.4546H121.553H124.459L124.457 32.6263C124.454 22.0579 124.474 22.2881 123.52 21.581C123.079 21.2533 122.779 21.2115 120.876 21.2115C119.045 21.2115 118.643 21.2633 118.138 21.5641C117.771 21.7825 115.809 24.1552 112.981 27.8011L108.417 33.6855V27.4044V21.1234H105.508H102.599V30.9131ZM132.216 21.4024C132.216 22.0593 130.445 35.1984 130.276 35.7932C130.011 36.7285 129.541 36.9895 128.122 36.9895H126.927V39.722V42.4546H128.751C132.339 42.4546 133.886 41.468 134.967 38.4891C135.242 37.7323 135.631 35.6393 136.091 32.4448C136.477 29.757 136.838 27.3001 136.893 26.985L136.992 26.4121H140.51H144.028V34.4333V42.4546H146.936H149.845V31.789V21.1234H141.031C133.107 21.1234 132.216 21.1516 132.216 21.4024ZM153.371 31.789V42.4546H163.684H173.997V39.722V36.9895H166.593H159.189V31.789V26.5884H166.593H173.997V23.8559V21.1234H163.684H153.371V31.789ZM177.347 31.7794V42.4546H180.255H183.164V34.5215V26.5884H187.755C192.045 26.5884 192.392 26.6122 193.058 26.9521C194.373 27.6227 194.861 29.7681 193.971 30.9607C193.107 32.1179 193.028 32.1363 188.705 32.1978L184.751 32.2538V34.7253V37.1965L189.29 37.1244C193.43 37.0586 193.923 37.0181 194.888 36.6632C197.067 35.8616 198.56 34.5112 199.51 32.4818C199.967 31.5069 200 31.2816 200 29.1446C200 27.0076 199.967 26.7823 199.51 25.8074C198.579 23.818 197.16 22.5379 194.888 21.6344C193.834 21.2157 193.798 21.214 185.588 21.1592L177.347 21.1042V31.7794ZM82.5022 31.7008V33.9926H86.8213H91.1405V31.7008V29.409H86.8213H82.5022V31.7008ZM161.128 31.7008V33.9926H167.474H173.821V31.7008V29.409H167.474H161.128V31.7008ZM77.2135 51.798C77.2135 54.501 77.2281 54.6186 77.5661 54.6186C77.8994 54.6186 77.9186 54.5007 77.9199 52.4591L77.9211 50.2995L78.9336 52.4552C79.4905 53.6409 79.9936 54.6126 80.0518 54.6147C80.1099 54.6169 80.6256 53.6469 81.1977 52.4591L82.2378 50.2995L82.2873 52.4591C82.3277 54.2186 82.3848 54.6186 82.5958 54.6186C82.8128 54.6186 82.8548 54.1615 82.8548 51.798C82.8548 49.2282 82.8273 48.9775 82.5463 48.9798C82.3235 48.9817 81.9437 49.618 81.18 51.2691C80.5983 52.5267 80.0826 53.5547 80.0341 53.5533C79.9857 53.5519 79.4781 52.5216 78.9062 51.264C78.1179 49.5298 77.7877 48.9773 77.54 48.9773C77.2357 48.9773 77.2135 49.1698 77.2135 51.798ZM104.362 49.7706C104.362 50.2295 104.281 50.5639 104.169 50.5639C104.062 50.5639 103.702 50.6937 103.367 50.8522C101.892 51.5522 101.892 53.6303 103.367 54.3304C103.702 54.4889 104.062 54.6186 104.169 54.6186C104.281 54.6186 104.362 54.953 104.362 55.4119C104.362 55.8482 104.442 56.2052 104.539 56.2052C104.636 56.2052 104.715 55.8546 104.715 55.4259C104.715 54.7119 104.757 54.6373 105.219 54.5359C105.496 54.4749 105.952 54.1858 106.233 53.8934C106.636 53.4727 106.742 53.2004 106.742 52.5913C106.742 51.9822 106.636 51.7098 106.233 51.2892C105.952 50.9967 105.496 50.7076 105.219 50.6466C104.757 50.5452 104.715 50.4707 104.715 49.7567C104.715 49.328 104.636 48.9773 104.539 48.9773C104.442 48.9773 104.362 49.3343 104.362 49.7706ZM172.12 49.1524C171.667 49.3352 171.468 49.6167 171.618 49.8607C171.688 49.9734 171.868 49.9411 172.109 49.7726C173.019 49.1346 174.222 49.7599 173.895 50.7014C173.784 51.0232 173.541 51.2365 173.158 51.3497C172.5 51.5439 172.389 51.9743 172.997 51.9743C173.504 51.9743 174.173 52.6579 174.173 53.1755C174.173 54.1405 172.834 54.5987 172.076 53.8928C171.791 53.627 171.622 53.5741 171.487 53.7091C171.025 54.1708 172.39 54.904 173.37 54.7203C174.62 54.4859 175.143 52.9276 174.266 52.0504C173.831 51.6153 173.83 51.6123 174.177 51.265C174.791 50.6514 174.609 49.6493 173.808 49.2352C173.255 48.9491 172.692 48.9214 172.12 49.1524ZM84.0888 52.5913C84.0888 53.8253 84.1578 54.6186 84.2651 54.6186C84.3621 54.6186 84.4414 54.222 84.4414 53.7372V52.8557H85.5873H86.7332V53.7372C86.7332 54.4032 86.7979 54.6186 86.9976 54.6186C87.2173 54.6186 87.2621 54.2759 87.2621 52.5913C87.2621 50.9066 87.2173 50.5639 86.9976 50.5639C86.7979 50.5639 86.7332 50.7794 86.7332 51.4454V52.3268H85.5873H84.4414V51.4454C84.4414 50.9606 84.3621 50.5639 84.2651 50.5639C84.1578 50.5639 84.0888 51.3572 84.0888 52.5913ZM89.5887 50.8589C88.5909 51.3505 88.2253 52.5259 88.7528 53.5459C89.0258 54.0737 89.9699 54.6186 90.6116 54.6186C91.2533 54.6186 92.1973 54.0737 92.4704 53.5459C93.0044 52.5132 92.6269 51.3364 91.6064 50.8522C90.846 50.4913 90.3309 50.4931 89.5887 50.8589ZM93.9611 52.5913C93.9611 53.8253 94.03 54.6186 94.1374 54.6186C94.2432 54.6186 94.3137 53.9135 94.3137 52.8557V51.0928H95.1951C95.8612 51.0928 96.0766 51.0281 96.0766 50.8284C96.0766 50.6226 95.8416 50.5639 95.0189 50.5639H93.9611V52.5913ZM98.0507 50.8589C97.0529 51.3505 96.6873 52.5259 97.2147 53.5459C97.4878 54.0737 98.4318 54.6186 99.0735 54.6186C99.7152 54.6186 100.659 54.0737 100.932 53.5459C101.466 52.5132 101.089 51.3364 100.068 50.8522C99.308 50.4913 98.7929 50.4931 98.0507 50.8589ZM108.661 52.4621L109.613 54.3602L109.286 54.9968C108.939 55.6728 108.584 55.9057 108.153 55.7402C107.985 55.6758 107.888 55.7425 107.888 55.9219C107.888 56.104 108.04 56.2052 108.314 56.2052C109.286 56.2052 109.365 56.0954 110.912 52.5992C111.382 51.5371 111.766 50.6447 111.766 50.6159C111.766 50.5874 111.66 50.5639 111.53 50.5639C111.4 50.5639 110.989 51.2472 110.617 52.0825C109.842 53.8223 109.898 53.8325 108.841 51.7539C108.501 51.0847 108.121 50.5639 107.973 50.5639C107.781 50.5639 107.97 51.084 108.661 52.4621ZM113.001 52.5913C113.001 53.8253 113.069 54.6186 113.177 54.6186C113.274 54.6186 113.353 54.222 113.353 53.7372V52.8557H114.499H115.645V53.7372C115.645 54.4032 115.71 54.6186 115.909 54.6186C116.129 54.6186 116.174 54.2759 116.174 52.5913C116.174 50.9066 116.129 50.5639 115.909 50.5639C115.71 50.5639 115.645 50.7794 115.645 51.4454V52.3268H114.499H113.353V51.4454C113.353 50.9606 113.274 50.5639 113.177 50.5639C113.069 50.5639 113.001 51.3572 113.001 52.5913ZM117.76 52.5913C117.76 53.8253 117.829 54.6186 117.937 54.6186C118.034 54.6186 118.113 54.165 118.113 53.6104V52.6024L119.132 53.6104C119.692 54.165 120.304 54.6186 120.493 54.6186C120.753 54.6186 120.587 54.3686 119.797 53.5702C118.64 52.4009 118.637 52.5313 119.858 51.225C120.283 50.7705 120.39 50.5639 120.2 50.5639C120.048 50.5639 119.553 50.9606 119.1 51.4454C118.646 51.9302 118.239 52.3268 118.194 52.3268C118.149 52.3268 118.113 51.9302 118.113 51.4454C118.113 50.9606 118.034 50.5639 117.937 50.5639C117.829 50.5639 117.76 51.3572 117.76 52.5913ZM121.991 52.5913V54.6186H123.314C124.606 54.6186 124.636 54.6285 124.636 55.0593C124.636 55.3337 124.736 55.5001 124.9 55.5001C125.123 55.5001 125.165 55.1084 125.165 53.032C125.165 50.9556 125.123 50.5639 124.9 50.5639C124.683 50.5639 124.636 50.8774 124.636 52.3268V54.0897H123.49H122.344V52.3268C122.344 51.2691 122.273 50.5639 122.168 50.5639C122.06 50.5639 121.991 51.3572 121.991 52.5913ZM126.583 52.5472L126.591 54.5305L127.879 53.1642C128.587 52.4129 129.218 51.798 129.281 51.798C129.344 51.798 129.396 52.4326 129.396 53.2083C129.396 54.031 129.469 54.6186 129.572 54.6186C129.679 54.6186 129.745 53.8456 129.74 52.6353L129.732 50.6521L128.444 52.0183C127.736 52.7697 127.105 53.3846 127.042 53.3846C126.979 53.3846 126.927 52.7499 126.927 51.9743C126.927 51.1515 126.854 50.5639 126.751 50.5639C126.644 50.5639 126.578 51.337 126.583 52.5472ZM132.251 50.8589C131.253 51.3505 130.888 52.5259 131.415 53.5459C131.688 54.0737 132.632 54.6186 133.274 54.6186C133.916 54.6186 134.86 54.0737 135.133 53.5459C135.667 52.5132 135.289 51.3364 134.269 50.8522C133.508 50.4913 132.993 50.4931 132.251 50.8589ZM136.623 52.5913C136.623 53.8253 136.692 54.6186 136.8 54.6186C136.897 54.6186 136.976 54.222 136.976 53.7372V52.8557H138.122H139.268V53.7372C139.268 54.4032 139.333 54.6186 139.532 54.6186C139.752 54.6186 139.797 54.2759 139.797 52.5913C139.797 50.9066 139.752 50.5639 139.532 50.5639C139.333 50.5639 139.268 50.7794 139.268 51.4454V52.3268H138.122H136.976V51.4454C136.976 50.9606 136.897 50.5639 136.8 50.5639C136.692 50.5639 136.623 51.3572 136.623 52.5913ZM141.707 50.6826C141.545 50.7252 141.37 50.8728 141.317 51.0103C141.24 51.2114 141.37 51.24 141.981 51.1563C142.931 51.026 143.499 51.3028 143.499 51.8963C143.499 52.3235 143.487 52.3274 143.059 52.0467C142.15 51.451 140.854 52.1334 140.854 53.2083C140.854 54.2831 142.15 54.9656 143.059 54.3699C143.444 54.1174 143.499 54.115 143.499 54.3501C143.499 54.4979 143.618 54.6186 143.763 54.6186C143.979 54.6186 144.028 54.3239 144.028 53.0241C144.028 51.566 143.991 51.3923 143.595 50.9967C143.178 50.5793 142.514 50.4689 141.707 50.6826ZM150.022 52.5913V54.6186H150.807C151.802 54.6186 152.395 54.3487 152.656 53.777C153.084 52.8368 152.284 51.9743 150.983 51.9743C150.39 51.9743 150.374 51.9556 150.374 51.2691C150.374 50.8813 150.295 50.5639 150.198 50.5639C150.09 50.5639 150.022 51.3572 150.022 52.5913ZM154.076 52.5913C154.076 53.8253 154.145 54.6186 154.253 54.6186C154.35 54.6186 154.429 54.222 154.429 53.7372V52.8557H155.575H156.721V53.7372C156.721 54.4032 156.785 54.6186 156.985 54.6186C157.205 54.6186 157.249 54.2759 157.249 52.5913C157.249 50.9066 157.205 50.5639 156.985 50.5639C156.785 50.5639 156.721 50.7794 156.721 51.4454V52.3268H155.575H154.429V51.4454C154.429 50.9606 154.35 50.5639 154.253 50.5639C154.145 50.5639 154.076 51.3572 154.076 52.5913ZM159.576 50.8589C158.578 51.3505 158.213 52.5259 158.74 53.5459C159.013 54.0737 159.957 54.6186 160.599 54.6186C161.241 54.6186 162.185 54.0737 162.458 53.5459C162.992 52.5132 162.614 51.3364 161.594 50.8522C160.833 50.4913 160.318 50.4931 159.576 50.8589ZM164.709 50.8127C163.724 51.2573 163.326 52.5278 163.853 53.5459C164.131 54.0834 165.073 54.6186 165.741 54.6186C166.229 54.6186 167.337 54.0608 167.436 53.7654C167.531 53.4785 167.079 53.5106 166.671 53.8197C165.817 54.4656 164.125 53.8153 164.125 52.8413C164.125 52.7522 164.918 52.6794 165.888 52.6794C167.648 52.6794 167.651 52.6787 167.651 52.2415C167.651 52.0005 167.433 51.5594 167.166 51.261C166.585 50.6108 165.568 50.4252 164.709 50.8127ZM176.818 52.3161C176.381 53.2869 175.925 54.0832 175.804 54.0855C175.683 54.0878 175.584 54.2087 175.584 54.3542C175.584 54.5738 175.926 54.6186 177.611 54.6186C179.296 54.6186 179.638 54.5738 179.638 54.3542C179.638 54.2087 179.557 54.0897 179.458 54.0897C179.359 54.0897 178.903 53.2934 178.444 52.3203L177.611 50.5509L176.818 52.3161ZM181.372 50.6826C181.211 50.7252 181.036 50.8728 180.983 51.0103C180.906 51.2114 181.035 51.24 181.647 51.1563C182.597 51.026 183.164 51.3028 183.164 51.8963C183.164 52.3235 183.153 52.3274 182.724 52.0467C181.815 51.451 180.52 52.1334 180.52 53.2083C180.52 54.2831 181.815 54.9656 182.724 54.3699C183.11 54.1174 183.164 54.115 183.164 54.3501C183.164 54.4979 183.283 54.6186 183.429 54.6186C183.644 54.6186 183.693 54.3239 183.693 53.0241C183.693 51.566 183.656 51.3923 183.26 50.9967C182.843 50.5793 182.179 50.4689 181.372 50.6826ZM185.103 52.5913C185.103 53.8253 185.172 54.6186 185.28 54.6186C185.377 54.6186 185.456 54.222 185.456 53.7372V52.8557H186.602H187.748V53.7372C187.748 54.4032 187.812 54.6186 188.012 54.6186C188.232 54.6186 188.277 54.2759 188.277 52.5913C188.277 50.9066 188.232 50.5639 188.012 50.5639C187.812 50.5639 187.748 50.7794 187.748 51.4454V52.3268H186.602H185.456V51.4454C185.456 50.9606 185.377 50.5639 185.28 50.5639C185.172 50.5639 185.103 51.3572 185.103 52.5913ZM189.872 52.5472L189.88 54.5305L191.167 53.1642C191.876 52.4129 192.507 51.798 192.57 51.798C192.632 51.798 192.684 52.4326 192.684 53.2083C192.684 54.031 192.757 54.6186 192.86 54.6186C192.968 54.6186 193.033 53.8456 193.028 52.6353L193.02 50.6521L191.732 52.0183C191.024 52.7697 190.393 53.3846 190.33 53.3846C190.267 53.3846 190.216 52.7499 190.216 51.9743C190.216 51.1515 190.142 50.5639 190.04 50.5639C189.932 50.5639 189.866 51.337 189.872 52.5472ZM195.384 50.8127C194.399 51.2573 194.001 52.5278 194.527 53.5459C194.805 54.0834 195.747 54.6186 196.415 54.6186C196.904 54.6186 198.012 54.0608 198.11 53.7654C198.206 53.4785 197.754 53.5106 197.345 53.8197C196.491 54.4656 194.799 53.8153 194.799 52.8413C194.799 52.7522 195.593 52.6794 196.562 52.6794C198.322 52.6794 198.325 52.6787 198.325 52.2415C198.325 52.0005 198.107 51.5594 197.84 51.261C197.259 50.6108 196.242 50.4252 195.384 50.8127ZM146.014 52.6794C145.36 54.0862 145.183 54.6186 145.37 54.6186C145.522 54.6186 145.889 54.0376 146.263 53.2083C146.613 52.4326 146.947 51.799 147.006 51.8003C147.065 51.8015 147.404 52.4361 147.761 53.2106C148.161 54.0818 148.512 54.6186 148.68 54.6186C148.886 54.6186 148.728 54.1477 148.032 52.6893C147.527 51.628 147.068 50.7554 147.014 50.7501C146.96 50.7446 146.51 51.6129 146.014 52.6794ZM91.3725 51.2978C91.9375 51.5989 92.1869 51.9951 92.1869 52.5913C92.1869 53.9256 90.6442 54.5395 89.5674 53.6333C89.1621 53.2924 89.025 53.0288 89.025 52.5913C89.025 51.5115 90.3759 50.7672 91.3725 51.2978ZM99.8344 51.2978C100.399 51.5989 100.649 51.9951 100.649 52.5913C100.649 53.9256 99.1062 54.5395 98.0294 53.6333C97.6241 53.2924 97.4869 53.0288 97.4869 52.5913C97.4869 51.5115 98.8378 50.7672 99.8344 51.2978ZM104.362 52.5913C104.362 54.1532 104.301 54.2572 103.601 53.8847C103.036 53.5836 102.787 53.1875 102.787 52.5913C102.787 52.0115 103.027 51.6164 103.569 51.3058C104.287 50.8939 104.362 51.0159 104.362 52.5913ZM105.786 51.6081C106.097 51.9187 106.301 52.3092 106.301 52.5913C106.301 53.1099 105.446 54.0897 104.993 54.0897C104.762 54.0897 104.715 53.8382 104.715 52.5913C104.715 50.8784 104.893 50.715 105.786 51.6081ZM134.035 51.2978C134.6 51.5989 134.849 51.9951 134.849 52.5913C134.849 53.9256 133.307 54.5395 132.23 53.6333C131.824 53.2924 131.687 53.0288 131.687 52.5913C131.687 51.5115 133.038 50.7672 134.035 51.2978ZM161.36 51.2978C161.925 51.5989 162.174 51.9951 162.174 52.5913C162.174 53.9256 160.632 54.5395 159.555 53.6333C159.15 53.2924 159.012 53.0288 159.012 52.5913C159.012 51.5115 160.363 50.7672 161.36 51.2978ZM166.715 51.5185C166.987 51.7527 167.16 51.994 167.1 52.0548C167.039 52.1158 166.325 52.1423 165.513 52.1139L164.037 52.0624L164.514 51.5776C165.135 50.9461 166.022 50.9222 166.715 51.5185ZM197.39 51.5185C197.662 51.7527 197.835 51.994 197.774 52.0548C197.714 52.1158 197 52.1423 196.188 52.1139L194.711 52.0624L195.188 51.5776C195.809 50.9461 196.697 50.9222 197.39 51.5185ZM178.748 53.9575C178.753 54.0303 178.248 54.0897 177.626 54.0897H176.494L177.046 52.8478L177.598 51.6058L178.169 52.7156C178.483 53.3259 178.744 53.8847 178.748 53.9575ZM143.176 52.6186C144.061 53.4193 142.839 54.5038 141.724 53.9073C141.285 53.6725 141.264 52.7662 141.692 52.5172C142.157 52.2464 142.815 52.2914 143.176 52.6186ZM182.842 52.6186C183.727 53.4193 182.505 54.5038 181.39 53.9073C180.951 53.6725 180.93 52.7662 181.357 52.5172C181.822 52.2464 182.48 52.2914 182.842 52.6186ZM151.991 52.7949C152.651 53.3922 152.153 54.0897 151.067 54.0897H150.374V53.2964V52.5031H151.021C151.377 52.5031 151.814 52.6345 151.991 52.7949Z" fill="white"/>
</svg>
