<svg width="36" height="36" viewBox="0 0 36 36" fill="none" xmlns="http://www.w3.org/2000/svg">
<path fill-rule="evenodd" clip-rule="evenodd" d="M14.1635 0.0900733C13.1335 0.197803 11.0361 0.713956 9.9458 1.12795C8.22409 1.78155 6.36351 2.85679 4.86245 4.06544C4.09703 4.68179 2.5639 6.23356 2.17428 6.78644C1.94834 7.10705 1.99515 7.08342 2.59161 6.57583C6.9991 2.82511 12.8416 1.14797 17.8507 2.19565C19.8932 2.62286 22.4572 3.7308 24.0881 4.89116C26.4427 6.56634 28.4763 9.05537 29.3706 11.357C30.0036 12.9863 30.1406 13.7768 30.1342 15.7639C30.129 17.3677 30.0985 17.6803 29.8615 18.5577C29.2879 20.6799 28.3496 22.3344 26.9625 23.6692C25.5694 25.0096 23.9407 25.8793 22.121 26.2544C20.2991 26.6299 17.2796 26.2009 15.3975 25.2993C12.8235 24.0663 11.4103 20.9509 12.2775 18.421C12.4088 18.0379 12.5029 17.7245 12.4867 17.7245C12.3895 17.7245 11.8749 18.7583 11.71 19.2853C11.4682 20.0575 11.4532 21.426 11.6761 22.3665C11.9682 23.5986 12.486 24.492 13.4751 25.4703C14.481 26.4654 15.5064 27.0583 17.1794 27.6125C18.8033 28.1505 19.625 28.2868 21.2184 28.2825C22.4356 28.2793 22.8328 28.2361 23.6651 28.0168C25.8308 27.4461 27.5291 26.4834 29.0521 24.9631C30.9608 23.058 32.0754 20.9269 32.6515 18.082C32.9268 16.7228 32.9016 14.2123 32.5986 12.7989C32.1933 10.9082 31.4422 9.18911 30.2648 7.45717C29.3426 6.10065 27.222 4.02572 25.7928 3.08164C22.2106 0.715091 18.1561 -0.327844 14.1635 0.0900733ZM29.4471 2.73626C30.8099 4.35706 32.4609 7.37586 33.1474 9.50229C34.9254 15.0092 34.2499 20.2962 31.2642 24.2397C29.9063 26.0334 27.9389 27.6637 25.9061 28.6799C24.1215 29.5721 21.5498 30.2114 19.7522 30.2098C14.7478 30.2056 10.2378 26.723 9.26465 22.1118C9.08116 21.242 9.06455 19.5667 9.23051 18.6568C9.69422 16.1142 11.7336 13.6736 14.2881 12.6043C14.9285 12.3362 15.1025 12.3098 16.2367 12.3085C17.3105 12.3073 17.5518 12.3391 17.9876 12.5389C18.6625 12.8485 18.4244 12.5479 17.7093 12.1876C14.6463 10.6444 9.97372 12.8845 8.09726 16.7958C7.38114 18.2884 7.22235 19.0587 7.22463 21.0266C7.2265 22.5384 7.25763 22.8446 7.50236 23.7587C7.83666 25.0067 8.60499 26.6025 9.34197 27.5791C10.6327 29.2896 12.6921 30.9254 14.6194 31.771C21.5476 34.8107 30.7025 31.1023 34.3937 23.7611C35.0527 22.4503 35.3801 21.5154 35.7124 19.9947C35.9196 19.0466 36 16.5894 36 16.5894C36 16.5894 35.9195 14.1325 35.7131 13.1905C34.9837 9.86097 33.3546 6.63568 31.1491 4.15512C30.3813 3.29152 29.2612 2.24611 29.1035 2.24611C29.0658 2.24611 29.2205 2.46663 29.4471 2.73626ZM13.5383 3.55548C11.0417 3.87712 8.25865 4.94843 6.30519 6.33953C5.31579 7.04411 3.87679 8.42396 3.17198 9.34379C1.61892 11.3706 0.547225 13.9233 0.151488 16.5378C-0.0485083 17.8596 -0.0508954 20.5668 0.146817 21.8709C0.65838 25.245 2.12831 28.6952 4.07326 31.0875C4.63578 31.7794 6.07021 33.2428 6.58416 33.649L6.99879 33.9768L6.7059 33.6157C4.87574 31.359 3.74052 29.3372 2.91054 26.8568C2.11679 24.4846 1.79764 22.2679 1.90018 19.8399C2.07143 15.7868 3.40592 12.5598 5.95522 10.034C8.57115 7.44232 11.7987 6.13872 15.614 6.13295C17.3025 6.13037 18.5229 6.31992 19.879 6.79532C22.7353 7.79667 24.562 9.38465 25.7451 11.8947C26.4122 13.3102 26.6114 14.3042 26.6136 16.2283C26.6147 17.2684 26.5636 18.0893 26.4756 18.4468C26.2464 19.3778 25.4838 20.8393 24.8904 21.4847C23.3737 23.1348 21.1278 24.0129 19.1839 23.716C18.4504 23.604 17.3062 23.159 16.8611 22.8126C16.746 22.7231 16.8777 22.8646 17.1537 23.127C18.7435 24.6386 21.6523 24.8709 24.0348 23.6764C27.5353 21.9213 29.1909 18.1212 28.4846 13.4625C27.7104 8.35534 23.7378 4.61617 18.0606 3.65073C17.1552 3.49677 14.4379 3.4395 13.5383 3.55548ZM13.4299 7.45181C9.8773 8.00088 6.66491 10.3986 4.71352 13.9579C3.21941 16.6831 2.78475 19.9261 3.47089 23.2287C4.25551 27.0054 6.80056 30.8197 10.0725 33.1224C14.8971 36.5181 21.1013 36.9295 26.9984 34.2448C29.218 33.2344 31.7934 31.3594 33.3837 29.5963C34.0369 28.8721 33.9927 28.8715 33.0501 29.5925C31.282 30.9449 28.479 32.4061 26.3559 33.0822C21.2002 34.7238 16.1863 34.2319 12.41 31.7141C9.9869 30.0985 7.90464 27.5999 6.84332 25.0345C5.19685 21.0545 5.52098 17.0044 7.75383 13.6572C8.70659 12.229 10.3978 10.7029 11.8238 9.9847C14.1036 8.8364 17.0053 8.75014 19.322 9.7617C21.4772 10.7028 23.2996 12.7564 23.916 14.9384L24.0763 15.5059L24.0318 14.7223C23.9389 13.0883 23.1248 11.4918 21.6424 10.0369C20.0917 8.51507 18.3374 7.66386 16.2367 7.41404C15.089 7.27763 14.5068 7.28536 13.4299 7.45181Z" fill="#C49B6C"/>
</svg>
