<svg width="21" height="17" viewBox="0 0 21 17" fill="none" xmlns="http://www.w3.org/2000/svg">
<path d="M18.2061 0.740234H2.5359C1.13708 0.740234 0 1.87731 0 3.27613V13.9861C0 15.3849 1.13708 16.522 2.5359 16.522H18.2018C19.6006 16.522 20.7377 15.3849 20.7377 13.9861V3.28042C20.742 1.8816 19.6049 0.740234 18.2061 0.740234ZM19.5835 13.9861C19.5835 14.7456 18.9656 15.3635 18.2061 15.3635H2.5359C1.77641 15.3635 1.15853 14.7456 1.15853 13.9861V3.28042C1.15853 2.52094 1.77641 1.90306 2.5359 1.90306H18.2018C18.9613 1.90306 19.5792 2.52094 19.5792 3.28042V13.9861H19.5835Z" fill="#414650"/>
<path d="M13.0785 8.49659L18.1503 3.94828C18.3863 3.73374 18.4077 3.36901 18.1932 3.12873C17.9786 2.89273 17.6139 2.87127 17.3736 3.08582L10.3795 9.36334L9.01505 8.14474C9.01076 8.14045 9.00646 8.13616 9.00646 8.13186C8.97643 8.10183 8.94639 8.07608 8.91207 8.05034L3.3597 3.08153C3.11941 2.86698 2.75469 2.88844 2.54014 3.12873C2.3256 3.36901 2.34706 3.73374 2.58734 3.94828L7.71921 8.5352L2.6088 13.3195C2.37709 13.5383 2.36422 13.9031 2.58305 14.1391C2.69891 14.2592 2.85338 14.3236 3.00785 14.3236C3.14945 14.3236 3.29104 14.2721 3.40261 14.1691L8.59025 9.31614L9.99765 10.5734C10.1092 10.6721 10.2465 10.7193 10.3838 10.7193C10.5211 10.7193 10.6627 10.6678 10.77 10.5691L12.216 9.27323L17.3736 14.1734C17.4852 14.2807 17.6311 14.3322 17.7727 14.3322C17.9272 14.3322 18.0773 14.2721 18.1932 14.1519C18.412 13.9202 18.4034 13.5512 18.1717 13.3324L13.0785 8.49659Z" fill="#414650"/>
</svg>
