<svg width="24" height="24" viewBox="0 0 24 24" fill="none" xmlns="http://www.w3.org/2000/svg">
<g clip-path="url(#clip0_106_718)">
<path d="M12 21.5673H14.1818V5.75465L21.157 9.08748C21.3535 9.18134 21.5208 9.33741 21.6382 9.53635C21.7558 9.73527 21.8184 9.96832 21.8182 10.2065V21.5673H24V24H0V21.5673H2.18182V5.32893C2.18179 5.09359 2.24301 4.86329 2.35802 4.66596C2.47303 4.46863 2.63693 4.31273 2.82982 4.21718L11.2331 0.0523846C11.3162 0.0111903 11.4073 -0.006148 11.498 0.00193314C11.5886 0.00999029 11.6761 0.0432303 11.7523 0.0986018C11.8285 0.153973 11.8911 0.229711 11.9344 0.318939C11.9776 0.408168 12.0002 0.508042 12 0.609477V21.5673Z" fill="white"/>
</g>
<defs>
<clipPath id="clip0_106_718">
<rect width="24" height="24" fill="white"/>
</clipPath>
</defs>
</svg>
