<svg width="33" height="33" viewBox="0 0 33 33" fill="none" xmlns="http://www.w3.org/2000/svg">
<path d="M19.7227 5.80078H13.2773C13.0996 5.80078 12.9551 5.94535 12.9551 6.12305V9.02344H20.0449V6.12305C20.0449 5.94535 19.9004 5.80078 19.7227 5.80078Z" fill="white"/>
<path d="M12.9551 10.957H20.0449V12.8906H12.9551V10.957Z" fill="white"/>
<path d="M22.3008 0H10.6992C8.74455 0 7.1543 1.59025 7.1543 3.54492V17.0801C7.1543 19.0347 8.74455 20.625 10.6992 20.625H15.5332V31.0664H11.9883C11.4544 31.0664 11.0215 31.4993 11.0215 32.0332C11.0215 32.5671 11.4544 33 11.9883 33H21.0117C21.5456 33 21.9785 32.5671 21.9785 32.0332C21.9785 31.4993 21.5456 31.0664 21.0117 31.0664H17.4668V20.625H22.3008C24.2555 20.625 25.8457 19.0347 25.8457 17.0801V3.54492C25.8457 1.59025 24.2555 0 22.3008 0ZM21.9785 13.8574C21.9785 14.3914 21.5456 14.8242 21.0117 14.8242H20.6895V15.791C20.6895 16.3249 20.2566 16.7578 19.7227 16.7578C19.1887 16.7578 18.7559 16.3249 18.7559 15.791V14.8242H14.2441V15.791C14.2441 16.3249 13.8113 16.7578 13.2773 16.7578C12.7434 16.7578 12.3105 16.3249 12.3105 15.791V14.8242H11.9883C11.4544 14.8242 11.0215 14.3914 11.0215 13.8574V6.12305C11.0215 4.87917 12.0335 3.86719 13.2773 3.86719H19.7227C20.9665 3.86719 21.9785 4.87917 21.9785 6.12305V13.8574Z" fill="white"/>
</svg>
