<svg width="21" height="21" viewBox="0 0 21 21" fill="none" xmlns="http://www.w3.org/2000/svg">
<g clip-path="url(#clip0_277_1711)">
<path d="M10.3688 0C6.07999 0 2.59216 3.48782 2.59216 7.77664C2.59216 13.1671 9.61188 20.2491 9.90998 20.5485C10.037 20.6742 10.2029 20.7377 10.3688 20.7377C10.5347 20.7377 10.7006 20.6742 10.8276 20.5485C11.1257 20.2491 18.1454 13.1671 18.1454 7.77664C18.1454 3.48782 14.6576 0 10.3688 0ZM10.3688 19.1526C8.82125 17.4961 3.88827 11.8944 3.88827 7.77664C3.88827 4.20327 6.79544 1.29611 10.3688 1.29611C13.9422 1.29611 16.8493 4.20327 16.8493 7.77664C16.8493 11.8905 11.9164 17.4961 10.3688 19.1526Z" fill="#414650"/>
<path d="M10.3688 3.88672C8.22503 3.88672 6.48047 5.63128 6.48047 7.77504C6.48047 9.9188 8.22503 11.6634 10.3688 11.6634C12.5125 11.6634 14.2571 9.9188 14.2571 7.77504C14.2571 5.63128 12.5125 3.88672 10.3688 3.88672ZM10.3688 10.3673C8.93918 10.3673 7.77658 9.20464 7.77658 7.77504C7.77658 6.34543 8.93918 5.18283 10.3688 5.18283C11.7984 5.18283 12.961 6.34543 12.961 7.77504C12.961 9.20464 11.7984 10.3673 10.3688 10.3673Z" fill="#414650"/>
</g>
<defs>
<clipPath id="clip0_277_1711">
<rect width="20.7377" height="20.7377" fill="white"/>
</clipPath>
</defs>
</svg>
