<svg width="20" height="20" viewBox="0 0 20 20" fill="none" xmlns="http://www.w3.org/2000/svg">
<g clip-path="url(#clip0_277_1763)">
<path d="M15.8063 12.3887C15.3968 11.9624 14.903 11.7344 14.3795 11.7344C13.8603 11.7344 13.3622 11.9581 12.9359 12.3845L11.602 13.7141C11.4923 13.655 11.3825 13.6002 11.277 13.5453C11.125 13.4693 10.9815 13.3975 10.8591 13.3216C9.60966 12.528 8.47417 11.4938 7.38512 10.1557C6.85747 9.48877 6.5029 8.92736 6.24541 8.35751C6.59154 8.04092 6.91235 7.71168 7.22471 7.39509C7.3429 7.2769 7.4611 7.15448 7.57929 7.03629C8.46573 6.14985 8.46573 5.00171 7.57929 4.11527L6.42692 2.9629C6.29606 2.83204 6.16099 2.69697 6.03435 2.56189C5.78108 2.30018 5.51515 2.03003 5.24078 1.77676C4.83133 1.37153 4.34168 1.15625 3.8267 1.15625C3.31172 1.15625 2.81362 1.37153 2.39151 1.77676C2.38729 1.78098 2.38729 1.78098 2.38307 1.7852L0.947882 3.23305C0.407577 3.77336 0.0994339 4.43185 0.0318957 5.19588C-0.0694116 6.42845 0.293606 7.5766 0.572201 8.32796C1.25603 10.1726 2.27754 11.8822 3.80137 13.7141C5.65023 15.9218 7.87477 17.6651 10.4159 18.8935C11.3868 19.3536 12.6826 19.8981 14.1305 19.991C14.2191 19.9952 14.312 19.9994 14.3964 19.9994C15.3715 19.9994 16.1904 19.6491 16.832 18.9526C16.8362 18.9441 16.8447 18.9399 16.8489 18.9315C17.0684 18.6655 17.3217 18.4249 17.5876 18.1674C17.7691 17.9944 17.9548 17.8129 18.1364 17.6229C18.5542 17.1881 18.7737 16.6816 18.7737 16.1624C18.7737 15.639 18.55 15.1367 18.1237 14.7145L15.8063 12.3887ZM17.3174 16.8336C17.3132 16.8336 17.3132 16.8378 17.3174 16.8336C17.1528 17.0108 16.984 17.1712 16.8025 17.3485C16.5281 17.6102 16.2495 17.8846 15.9878 18.1928C15.5615 18.6486 15.0591 18.8639 14.4006 18.8639C14.3373 18.8639 14.2698 18.8639 14.2065 18.8597C12.9528 18.7795 11.7878 18.2898 10.914 17.872C8.52482 16.7154 6.42692 15.0733 4.68359 12.9923C3.24418 11.2574 2.28176 9.6534 1.64437 7.93117C1.2518 6.88011 1.10829 6.06121 1.1716 5.28874C1.21381 4.79487 1.40377 4.38542 1.75412 4.03507L3.19353 2.59566C3.40036 2.40149 3.61986 2.29596 3.83514 2.29596C4.10107 2.29596 4.31635 2.45636 4.45143 2.59144C4.45565 2.59566 4.45987 2.59988 4.46409 2.6041C4.72158 2.8447 4.9664 3.09375 5.22389 3.35968C5.35475 3.49476 5.48983 3.62984 5.6249 3.76913L6.77727 4.9215C7.22471 5.36894 7.22471 5.78262 6.77727 6.23006C6.65486 6.35247 6.53667 6.47488 6.41425 6.59307C6.05968 6.95609 5.72199 7.29378 5.35475 7.62303C5.34631 7.63147 5.33786 7.63569 5.33364 7.64414C4.97063 8.00715 5.03816 8.36173 5.11414 8.60233C5.11837 8.615 5.12259 8.62766 5.12681 8.64033C5.42651 9.36636 5.84862 10.0502 6.49023 10.8649L6.49446 10.8691C7.65949 12.3043 8.88784 13.4229 10.2428 14.2798C10.4159 14.3895 10.5932 14.4782 10.762 14.5626C10.914 14.6386 11.0575 14.7103 11.1799 14.7863C11.1968 14.7947 11.2137 14.8074 11.2306 14.8158C11.3741 14.8876 11.5092 14.9214 11.6485 14.9214C11.9988 14.9214 12.2183 14.7019 12.2901 14.6301L13.7337 13.1865C13.8772 13.043 14.1052 12.8699 14.3711 12.8699C14.6328 12.8699 14.8481 13.0345 14.9789 13.178C14.9832 13.1823 14.9832 13.1823 14.9874 13.1865L17.3132 15.5123C17.748 15.9429 17.748 16.3861 17.3174 16.8336Z" fill="#414650"/>
<path d="M10.8085 4.7574C11.9145 4.94313 12.9191 5.46656 13.7211 6.26857C14.5231 7.07059 15.0423 8.07522 15.2323 9.18116C15.2787 9.45975 15.5193 9.65392 15.7937 9.65392C15.8275 9.65392 15.857 9.6497 15.8908 9.64548C16.2032 9.59483 16.41 9.29935 16.3593 8.98698C16.1314 7.64888 15.4982 6.42897 14.5316 5.46233C13.5649 4.49569 12.345 3.86252 11.0069 3.63458C10.6946 3.58393 10.4033 3.79076 10.3484 4.09891C10.2936 4.40705 10.4962 4.70675 10.8085 4.7574Z" fill="#414650"/>
<path d="M19.9769 8.82242C19.6012 6.61899 18.5628 4.61395 16.9672 3.01836C15.3716 1.42277 13.3666 0.384369 11.1631 0.00868772C10.855 -0.0461871 10.5637 0.16487 10.5088 0.473013C10.4582 0.785377 10.665 1.07664 10.9774 1.13151C12.9444 1.46498 14.7384 2.39785 16.1652 3.82037C17.5919 5.24712 18.5206 7.0411 18.854 9.00815C18.9005 9.28675 19.1411 9.48092 19.4154 9.48092C19.4492 9.48092 19.4788 9.4767 19.5125 9.47248C19.8207 9.42604 20.0317 9.13056 19.9769 8.82242Z" fill="#414650"/>
</g>
<defs>
<clipPath id="clip0_277_1763">
<rect width="20" height="20" fill="white"/>
</clipPath>
</defs>
</svg>
