<svg width="39" height="138" viewBox="0 0 39 138" fill="none" xmlns="http://www.w3.org/2000/svg">
<path d="M32 137.279L25.2756 137.279L25.2756 124.03C25.2756 123.123 25.1289 122.282 24.8353 121.509C24.5151 120.735 24.0882 120.068 23.5545 119.507C22.9942 118.947 22.3271 118.52 21.5532 118.227C20.7794 117.906 19.9255 117.746 18.9916 117.746C18.0576 117.746 17.2037 117.906 16.4299 118.227C15.6561 118.52 14.989 118.947 14.4286 119.507C13.8682 120.068 13.4413 120.735 13.1478 121.509C12.8275 122.282 12.6674 123.123 12.6674 124.03L12.6674 137.279L5.98311 137.279L5.9831 124.511C5.9831 122.536 6.30331 120.708 6.94373 119.027C7.55746 117.346 8.43803 115.892 9.58544 114.664C10.7329 113.437 12.1071 112.476 13.7081 111.782C15.2825 111.089 17.0436 110.742 18.9916 110.742C20.9395 110.742 22.714 111.089 24.315 111.782C25.916 112.476 27.2903 113.437 28.4377 114.664C29.5584 115.892 30.439 117.346 31.0794 119.027C31.6931 120.708 32 122.536 32 124.511L32 137.279ZM21.7133 131.795L16.1497 131.795L16.1497 121.309L21.7133 121.309L21.7133 131.795ZM23.5545 99.9643L13.548 91.0786C12.9877 90.5716 12.6007 90.0779 12.3873 89.5976C12.1471 89.1173 12.027 88.4102 12.027 87.4762L12.027 85.9953C12.027 84.0473 12.8009 83.0734 14.3485 83.0734L32 83.0734L32 89.7577L19.3118 89.7577L30.2789 99.6041C30.8926 100.164 31.3329 100.685 31.5997 101.165C31.8666 101.619 32 102.246 32 103.046L32 104.287C32 105.862 31.2929 106.649 29.8786 106.649L12.027 106.649L12.027 99.9643L23.5545 99.9643ZM10.426 97.2426C10.426 98.0698 10.2659 98.857 9.94568 99.6041C9.62547 100.325 9.17184 100.965 8.58479 101.525C7.99774 102.086 7.29062 102.526 6.46342 102.846C5.63621 103.166 4.71561 103.327 3.70162 103.327L0.93983 103.327L0.939829 98.1632L3.78167 98.1632C4.60888 98.1632 5.24929 98.0031 5.70292 97.6829C6.12987 97.336 6.34334 96.8823 6.34334 96.322L6.34334 93.4001C6.34334 92.8397 6.12987 92.3994 5.70292 92.0792C5.24929 91.7323 4.60888 91.5589 3.78167 91.5589L0.939829 91.5589L0.939829 86.3955L3.70162 86.3955C4.71561 86.3955 5.63621 86.5556 6.46342 86.8758C7.29062 87.196 7.99774 87.6363 8.58479 88.1967C9.17184 88.7571 9.62547 89.4108 9.94568 90.158C10.2659 90.8784 10.426 91.6523 10.426 92.4795L10.426 97.2426ZM32 79.5301L26.1562 79.5301L26.1562 77.4888C26.1562 77.0352 26.0228 76.6616 25.7559 76.3681C25.4624 76.0746 24.9821 75.8744 24.315 75.7677L12.027 73.9265L12.027 55.2344L32 55.2344L32 61.9187L17.9108 61.9187L17.9108 69.0433L25.5958 70.3242C27.7839 70.6977 29.3983 71.4049 30.439 72.4455C31.4797 73.4595 32 74.9138 32 76.8084L32 79.5301ZM32 40.5936C32 42.1413 31.7598 43.5689 31.2795 44.8764C30.7992 46.1839 30.1188 47.318 29.2382 48.2786C28.3576 49.2392 27.3036 49.9864 26.0761 50.52C24.8487 51.0537 23.4878 51.3206 21.9935 51.3206C20.5259 51.3206 19.1783 51.0537 17.9509 50.52C16.7234 49.9864 15.6694 49.2392 14.7888 48.2786C13.9082 47.318 13.2278 46.1839 12.7475 44.8764C12.2672 43.5689 12.027 42.1413 12.027 40.5936L12.027 35.5103C12.027 34.3629 12.1871 33.3622 12.5073 32.5084C12.8275 31.6545 13.2678 30.9473 13.8282 30.387C14.3886 29.7999 15.069 29.373 15.8695 29.1061C16.6434 28.8126 17.4972 28.6659 18.4312 28.6659C20.1923 28.6659 21.5132 29.1729 22.3938 30.1868C23.2743 31.2008 23.7146 32.8686 23.7146 35.1901L23.7146 42.3147L20.0723 42.3147L20.0723 36.591C20.0723 35.5503 19.6053 35.03 18.6713 35.03C17.684 35.03 17.1904 35.537 17.1904 36.551L17.1904 40.6336C17.1904 41.8344 17.604 42.8084 18.4312 43.5555C19.2584 44.3027 20.4325 44.6763 21.9535 44.6763C23.4745 44.6763 24.6219 44.3027 25.3957 43.5555C26.1429 42.8084 26.5164 41.8344 26.5164 40.6336L26.5164 29.7466L32 29.7466L32 40.5936ZM38.9645 24.9425L21.5532 24.9425C18.4846 24.9425 16.1364 24.1153 14.5086 22.4609C12.8542 20.7798 12.027 18.2715 12.027 14.936L12.027 11.4137C12.027 9.86604 12.2672 8.43845 12.7475 7.13093C13.2011 5.79673 13.8682 4.64932 14.7488 3.6887C15.6294 2.72807 16.7234 1.98092 18.0309 1.44724C19.3118 0.913562 20.7794 0.646723 22.4338 0.646722C25.4224 0.646722 27.7973 1.55398 29.5584 3.36849C31.3196 5.183 32.2001 7.87808 32.2001 11.4537C32.2001 12.3076 32.1468 13.1615 32.04 14.0154C31.96 14.8426 31.8265 15.6031 31.6398 16.2969L25.5958 16.2969C25.7826 15.6031 25.9294 14.896 26.0361 14.1755C26.1162 13.455 26.1562 12.7879 26.1562 12.1742C26.1562 10.6265 25.876 9.4391 25.3157 8.61189C24.7286 7.75801 23.7013 7.33106 22.2337 7.33106C20.7927 7.33106 19.752 7.71798 19.1116 8.49182C18.4712 9.23897 18.151 10.2129 18.151 11.4137L18.151 14.7759C18.151 17.0974 19.2851 18.2582 21.5532 18.2582L38.9645 18.2582L38.9645 24.9425Z" fill="#81817F"/>
</svg>
